<svg xmlns="http://www.w3.org/2000/svg" xmlns:xlink="http://www.w3.org/1999/xlink" width="1080" zoomAndPan="magnify" viewBox="0 0 810 809.999993" height="1080" preserveAspectRatio="xMidYMid meet" version="1.0"><defs><clipPath id="c1defe1185"><path d="M 4 8.390625 L 810 8.390625 L 810 810 L 4 810 Z M 4 8.390625 " clip-rule="nonzero"/></clipPath></defs><g clip-path="url(#c1defe1185)"><path fill="#ffffff" d="M 76.886719 616.578125 C 44.09375 573.355469 20.242188 522.765625 10.21875 469.082031 C 0.164062 415.429688 3.863281 359.324219 20.816406 307.523438 C 37.667969 255.621094 67.335938 208.5625 104.371094 169.109375 C 141.472656 129.585938 185.90625 97.5625 233.703125 72.738281 C 281.566406 47.847656 333.132812 30.828125 385.773438 20.128906 C 412.179688 15.050781 438.851562 11.652344 465.59375 9.835938 L 485.675781 8.761719 L 505.789062 8.492188 C 519.210938 8.390625 532.699219 8.863281 546.085938 10.78125 C 559.40625 12.695312 572.761719 15.65625 585.207031 21.105469 C 597.617188 26.519531 609.289062 34.257812 617.9375 44.851562 C 622.273438 50.066406 626.042969 55.820312 628.832031 62.007812 C 631.726562 68.128906 633.980469 74.554688 635.492188 81.148438 C 638.722656 94.265625 639.53125 107.789062 639.597656 121.175781 C 638.957031 174.925781 624.5625 227.132812 623.386719 280.613281 C 623.25 293.933594 623.789062 307.355469 626.480469 320.4375 C 629.003906 333.523438 633.746094 346.273438 641.246094 357.339844 C 645.046875 362.820312 649.519531 367.832031 654.429688 372.339844 C 659.542969 376.613281 664.890625 380.683594 670.8125 383.777344 C 682.484375 390.269531 695.332031 394.507812 708.386719 397.230469 C 695.300781 394.542969 682.449219 390.335938 670.746094 383.878906 C 664.792969 380.785156 659.445312 376.746094 654.296875 372.476562 C 649.351562 367.96875 644.84375 362.988281 641.042969 357.472656 C 633.507812 346.40625 628.699219 333.625 626.109375 320.507812 C 623.351562 307.386719 622.8125 293.933594 622.878906 280.578125 C 623.820312 227.03125 637.546875 174.523438 637.746094 121.140625 C 637.578125 107.855469 636.671875 94.46875 633.242188 81.6875 C 631.660156 75.261719 629.371094 69.039062 626.480469 63.117188 C 623.652344 57.164062 619.953125 51.683594 615.714844 46.703125 C 607.238281 36.644531 595.902344 29.414062 583.828125 24.335938 C 571.683594 19.324219 558.632812 16.597656 545.550781 14.917969 C 532.429688 13.234375 519.144531 13 505.859375 13.300781 L 485.910156 13.875 L 466 15.21875 C 439.492188 17.441406 413.121094 21.207031 387.085938 26.621094 C 335.21875 37.992188 284.5625 55.582031 237.941406 80.777344 C 191.320312 105.871094 148.433594 138.027344 112.746094 176.84375 C 76.988281 215.558594 48.902344 261.441406 32.957031 311.457031 C 16.8125 361.339844 13.449219 415.195312 23.238281 466.625 C 32.757812 518.15625 55.460938 566.929688 87.082031 608.875 C 118.664062 650.953125 158.625 686.609375 203.058594 715.066406 C 225.328125 729.261719 248.570312 742.007812 272.789062 752.707031 C 296.972656 763.433594 321.964844 772.449219 347.429688 779.816406 C 372.890625 787.25 398.925781 792.734375 425.164062 796.535156 C 451.433594 800.335938 477.9375 802.789062 504.511719 803.09375 C 517.800781 803.5625 530.984375 803.125 544.171875 801.746094 C 557.320312 800.402344 570.40625 798.316406 583.289062 795.1875 C 608.988281 788.933594 633.980469 779.414062 657.191406 766.496094 C 703.640625 740.796875 743.367188 702.855469 771.386719 657.546875 C 785.378906 634.910156 796.546875 610.421875 803.746094 584.722656 C 810.910156 559.09375 814.171875 532.082031 810.773438 505.574219 C 807.511719 479.171875 796.816406 453.269531 778.214844 433.964844 C 759.679688 414.554688 734.417969 402.679688 708.351562 397.300781 C 734.453125 402.613281 759.78125 414.421875 778.382812 433.796875 C 797.085938 453.101562 807.914062 479.035156 811.246094 505.507812 C 814.675781 532.082031 811.816406 559.226562 804.820312 585.027344 C 797.824219 610.894531 786.824219 635.617188 772.96875 658.523438 C 759.042969 681.429688 742.359375 702.652344 723.253906 721.523438 C 704.113281 740.328125 682.585938 756.773438 659.242188 770.164062 C 635.929688 783.652344 610.703125 793.707031 584.601562 800.503906 C 571.550781 803.902344 558.230469 806.222656 544.84375 807.800781 C 538.148438 808.675781 531.421875 809.046875 524.660156 809.519531 C 517.933594 809.6875 511.140625 809.988281 504.445312 809.785156 C 477.570312 809.886719 450.726562 807.835938 424.054688 804.40625 C 397.378906 800.941406 370.90625 795.792969 344.941406 788.664062 C 293.003906 774.535156 242.617188 753.679688 196.902344 724.785156 C 151.257812 695.992188 109.683594 659.933594 76.886719 616.578125 Z M 768.394531 445.871094 C 764.390625 441.027344 760.21875 436.285156 755.511719 432.113281 C 746.226562 423.636719 735.597656 416.640625 724.226562 411.226562 C 712.859375 405.808594 700.816406 401.90625 688.574219 399.148438 C 700.816406 401.941406 712.859375 405.910156 724.195312 411.359375 C 735.496094 416.84375 746.089844 423.839844 755.339844 432.347656 C 760.050781 436.519531 764.1875 441.261719 768.15625 446.140625 C 771.890625 451.183594 775.523438 456.332031 778.417969 461.914062 C 784.472656 472.914062 788.675781 484.890625 791.0625 497.234375 C 796.109375 521.890625 794.125 547.554688 788.203125 571.875 C 782.21875 596.261719 772.125 619.503906 759.175781 640.964844 C 733.175781 683.851562 695.738281 719.539062 652.144531 743.859375 C 608.484375 768.179688 558.5 780.523438 508.71875 779.378906 C 458.734375 778.539062 408.78125 771.910156 360.78125 758.253906 C 336.765625 751.496094 313.21875 743.21875 290.414062 733.230469 C 267.640625 723.140625 245.644531 711.433594 224.621094 698.214844 C 182.609375 671.742188 144.765625 638.507812 114.761719 599.152344 C 84.757812 559.898438 62.996094 514.253906 53.578125 465.917969 C 43.925781 417.648438 46.714844 366.992188 61.449219 320.003906 C 76.015625 272.878906 102.117188 229.554688 135.449219 192.921875 C 168.75 156.15625 208.914062 125.683594 252.675781 101.867188 C 296.535156 78.121094 343.996094 61.101562 392.804688 50.402344 C 417.257812 45.191406 442.050781 41.523438 467.007812 39.371094 L 485.742188 38.09375 C 492 37.757812 498.257812 37.6875 504.511719 37.488281 C 517.023438 37.050781 529.503906 37.351562 541.882812 38.765625 C 554.226562 40.179688 566.503906 42.734375 578.007812 47.242188 C 583.660156 49.695312 589.3125 52.289062 594.355469 55.851562 C 597.011719 57.433594 599.265625 59.554688 601.722656 61.4375 C 603.910156 63.589844 606.261719 65.605469 608.179688 68.027344 C 610.300781 70.28125 611.980469 72.871094 613.765625 75.363281 C 615.3125 78.019531 616.992188 80.609375 618.238281 83.46875 C 620.964844 89.019531 622.980469 94.9375 624.359375 100.992188 C 627.355469 113.101562 627.960938 125.683594 627.859375 138.195312 C 626.546875 188.414062 612.621094 237.558594 610.636719 287.945312 C 610.265625 300.527344 610.535156 313.175781 612.824219 325.585938 C 614.976562 337.996094 619.179688 350.105469 626.007812 360.734375 C 629.507812 365.984375 633.578125 370.828125 638.183594 375.132812 C 642.894531 379.269531 647.90625 383.171875 653.421875 386.199219 C 664.320312 392.488281 676.363281 396.660156 688.605469 399.386719 C 676.363281 396.625 664.355469 392.421875 653.457031 386.097656 C 647.941406 383.070312 642.960938 379.136719 638.285156 375 C 633.710938 370.691406 629.675781 365.847656 626.210938 360.601562 C 619.449219 350.007812 615.277344 337.898438 613.191406 325.550781 C 610.972656 313.175781 610.738281 300.527344 611.140625 288.011719 C 613.359375 237.691406 627.960938 188.851562 629.707031 138.296875 C 629.945312 125.683594 629.4375 112.933594 626.613281 100.523438 C 625.269531 94.300781 623.316406 88.210938 620.59375 82.425781 C 619.347656 79.464844 617.667969 76.742188 616.085938 73.949219 C 614.234375 71.324219 612.554688 68.601562 610.367188 66.210938 C 608.417969 63.65625 605.996094 61.503906 603.742188 59.214844 C 601.25 57.199219 598.898438 54.976562 596.171875 53.261719 C 590.992188 49.460938 585.171875 46.667969 579.355469 44.046875 C 567.515625 39.203125 554.96875 36.410156 542.386719 34.730469 C 529.808594 33.046875 517.058594 32.574219 504.445312 32.8125 C 498.121094 32.914062 491.832031 32.878906 485.507812 33.113281 L 466.570312 34.089844 C 441.375 35.871094 416.25 39.167969 391.425781 44.011719 C 341.84375 54.070312 293.40625 70.519531 248.367188 93.964844 C 203.464844 117.238281 161.71875 147.582031 127.007812 185.050781 C 92.359375 222.421875 64.710938 266.992188 49.238281 316 C 33.699219 364.941406 30.605469 417.851562 40.527344 468.304688 C 50.449219 518.828125 73.390625 566.257812 104.570312 606.753906 C 135.820312 647.390625 175.277344 681.027344 218.53125 707.734375 C 240.160156 721.121094 262.898438 732.65625 286.3125 742.582031 C 309.753906 752.402344 333.875 760.441406 358.394531 766.898438 C 407.402344 779.984375 458.160156 785.835938 508.71875 785.871094 C 559.574219 786.207031 610.402344 772.753906 654.261719 747.324219 C 698.160156 721.960938 735.160156 685.164062 760.824219 641.738281 C 773.640625 620.007812 783.5625 596.496094 789.347656 571.941406 C 795.101562 547.453125 796.679688 521.6875 791.601562 496.964844 C 789.148438 484.621094 784.875 472.613281 778.785156 461.578125 C 775.792969 456.0625 772.160156 450.882812 768.394531 445.871094 Z M 771.117188 488.65625 C 764.660156 465.886719 750.699219 445.46875 732.335938 430.667969 C 713.867188 415.832031 691.601562 406.480469 668.726562 400.933594 C 691.566406 406.582031 713.800781 416 732.164062 430.867188 C 750.464844 445.703125 764.289062 466.085938 770.644531 488.792969 C 777.375 511.429688 776.96875 535.679688 772.460938 558.65625 C 767.855469 581.730469 758.773438 603.761719 746.964844 624.042969 C 723.183594 664.609375 687.96875 698.113281 647.164062 720.917969 C 606.363281 743.960938 559.542969 755.566406 512.957031 755.328125 C 489.511719 755.058594 466.097656 753.445312 442.890625 750.417969 C 419.679688 747.324219 396.707031 742.546875 374.167969 736.425781 C 328.996094 724.316406 285.738281 705.480469 246.148438 681.027344 C 226.371094 668.78125 207.535156 654.992188 190.109375 639.617188 C 172.71875 624.246094 156.742188 607.292969 142.511719 589.027344 C 114.089844 552.53125 93.269531 510.015625 83.984375 464.84375 C 74.464844 419.769531 76.585938 372.308594 89.972656 328.175781 C 103.191406 283.945312 127.277344 243.140625 158.253906 208.597656 C 189.203125 173.953125 226.640625 145.125 267.542969 122.589844 C 308.578125 100.285156 352.910156 83.90625 398.691406 73.78125 C 421.597656 68.769531 444.808594 65.238281 468.183594 63.085938 L 485.742188 61.875 C 491.597656 61.4375 497.480469 61.46875 503.335938 61.234375 C 515.074219 60.695312 526.78125 61.03125 538.382812 62.210938 C 549.957031 63.421875 561.492188 65.675781 572.324219 69.777344 C 575.046875 70.789062 577.636719 72.066406 580.261719 73.242188 C 582.75 74.6875 585.410156 75.898438 587.730469 77.617188 C 592.605469 80.710938 596.914062 84.578125 600.714844 88.917969 C 604.546875 93.222656 607.609375 98.167969 610.03125 103.414062 C 612.519531 108.628906 614.269531 114.210938 615.480469 119.898438 C 618.035156 131.300781 618.339844 143.105469 617.933594 154.8125 C 615.511719 201.871094 601.386719 247.617188 598.324219 294.808594 C 597.6875 306.582031 597.652344 318.453125 599.433594 330.160156 C 600.207031 336.011719 601.6875 341.765625 603.472656 347.382812 C 605.355469 353 607.878906 358.347656 610.871094 363.460938 C 614.035156 368.4375 617.699219 373.113281 621.9375 377.25 C 626.242188 381.253906 630.851562 385.023438 636 387.949219 C 646.089844 394.070312 657.324219 398.175781 668.761719 400.933594 C 657.324219 398.140625 646.121094 394.003906 636.066406 387.847656 C 630.953125 384.886719 626.378906 381.121094 622.074219 377.117188 C 617.867188 372.980469 614.234375 368.304688 611.105469 363.328125 C 608.148438 358.246094 605.625 352.898438 603.773438 347.28125 C 602.023438 341.664062 600.578125 335.945312 599.804688 330.09375 C 598.054688 318.421875 598.125 306.582031 598.828125 294.839844 C 602.09375 247.714844 616.894531 202.273438 619.785156 154.914062 C 620.324219 143.105469 620.15625 131.132812 617.734375 119.425781 C 616.589844 113.574219 614.875 107.789062 612.386719 102.339844 C 609.964844 96.855469 606.867188 91.609375 602.898438 87.035156 C 599.03125 82.425781 594.558594 78.253906 589.511719 74.957031 C 587.089844 73.140625 584.398438 71.796875 581.808594 70.25 C 579.117188 68.9375 576.425781 67.59375 573.636719 66.480469 C 562.46875 62.007812 550.695312 59.519531 538.855469 58.074219 C 491.394531 53.902344 443.863281 58.207031 397.3125 67.289062 C 350.792969 76.707031 305.484375 92.515625 263.234375 114.546875 C 221.191406 136.851562 182.171875 165.542969 149.8125 200.929688 C 117.453125 236.246094 91.789062 278.257812 77.695312 324.441406 C 63.535156 370.523438 61.144531 420.238281 70.933594 467.5 C 80.757812 514.828125 102.722656 559.125 132.355469 596.867188 C 161.988281 634.742188 199.226562 666.089844 240.09375 690.78125 C 280.996094 715.4375 325.632812 733.667969 371.78125 745.238281 C 394.855469 751.058594 418.269531 755.496094 441.847656 758.222656 C 465.460938 760.878906 489.207031 762.089844 512.921875 761.957031 C 560.617188 761.382812 608.179688 748.636719 649.183594 724.519531 C 690.289062 700.667969 725.035156 666.058594 748.511719 624.917969 C 760.183594 604.367188 769.097656 582.066406 773.503906 558.789062 C 777.878906 535.679688 777.878906 511.363281 771.117188 488.65625 Z M 749.691406 480.585938 C 741.683594 459.898438 726.582031 442.574219 708.753906 429.792969 C 690.828125 416.910156 670.105469 408.46875 648.847656 402.75 C 670.074219 408.535156 690.726562 417.078125 708.585938 429.996094 C 726.347656 442.84375 741.316406 460.167969 749.21875 480.785156 C 757.425781 501.238281 759.210938 523.839844 756.214844 545.503906 C 753.089844 567.265625 745.21875 588.121094 734.585938 607.261719 C 713.09375 645.574219 680.097656 676.753906 642.152344 698.28125 C 623.046875 708.910156 602.628906 717.085938 581.574219 722.601562 C 560.519531 728.082031 538.789062 731.347656 517.023438 731.246094 C 429.636719 731.75 341.84375 709.179688 267.507812 664.003906 C 230.371094 641.503906 196.972656 612.808594 170.097656 579.003906 C 143.21875 545.265625 123.375 505.8125 114.292969 463.800781 C 104.941406 421.886719 106.386719 377.621094 118.464844 336.382812 C 130.371094 295.011719 152.46875 256.765625 181.128906 224.339844 C 209.753906 191.847656 244.433594 164.566406 282.542969 143.476562 C 320.722656 122.453125 361.992188 106.8125 404.679688 97.328125 C 447.296875 87.910156 491.527344 83.199219 535.054688 85.925781 C 545.886719 86.964844 556.648438 88.953125 566.773438 92.683594 C 576.898438 96.316406 586.316406 102.171875 593.3125 110.3125 C 600.34375 118.449219 604.648438 128.742188 606.566406 139.40625 C 608.683594 150.101562 608.617188 161.136719 607.910156 172.066406 C 604.3125 215.894531 590.015625 258.246094 585.945312 302.207031 C 585.039062 313.175781 584.667969 324.273438 586.015625 335.238281 C 586.585938 340.722656 587.796875 346.136719 589.277344 351.453125 C 590.890625 356.734375 593.042969 361.847656 595.734375 366.65625 C 601.25 376.210938 609.15625 384.347656 618.539062 390.136719 C 627.859375 396.054688 638.253906 400.089844 648.914062 402.816406 C 638.285156 400.023438 627.890625 395.988281 618.609375 390.035156 C 609.257812 384.179688 601.421875 376.074219 595.9375 366.523438 C 593.28125 361.710938 591.160156 356.597656 589.578125 351.351562 C 588.132812 346.070312 586.957031 340.65625 586.382812 335.207031 C 585.105469 324.273438 585.476562 313.207031 586.453125 302.277344 C 590.757812 258.378906 605.691406 216.367188 609.761719 172.234375 C 610.570312 161.238281 610.769531 150.035156 608.855469 139.035156 C 607.070312 128.070312 602.800781 117.207031 595.566406 108.496094 C 588.335938 99.78125 578.511719 93.425781 568.050781 89.457031 C 557.589844 85.386719 546.523438 83.132812 535.492188 81.886719 C 491.160156 78.289062 446.757812 82.222656 403.300781 90.96875 C 359.839844 99.78125 317.59375 114.851562 278.203125 135.605469 C 238.917969 156.492188 202.65625 183.605469 172.585938 216.871094 C 142.648438 250.070312 118.96875 289.59375 106.1875 332.917969 C 93.371094 376.140625 91.65625 422.660156 101.308594 466.792969 C 110.996094 510.957031 132.019531 552.128906 160.070312 587.113281 C 188.191406 622.160156 223.207031 651.222656 261.554688 673.960938 C 280.761719 685.363281 300.910156 695.085938 321.5625 703.394531 C 342.25 711.636719 363.441406 718.597656 385.066406 723.777344 C 406.664062 729.023438 428.59375 732.824219 450.660156 735.316406 C 472.757812 737.703125 494.890625 738.613281 517.125 738.074219 C 539.425781 737.738281 561.59375 733.96875 582.988281 728.015625 C 604.378906 721.960938 625.03125 713.25 644.207031 702.082031 C 682.417969 679.511719 714.976562 647.21875 736.167969 608.335938 C 746.695312 588.929688 754.367188 567.804688 757.292969 545.839844 C 760.152344 523.738281 757.933594 501.070312 749.691406 480.585938 Z M 727.222656 472.882812 C 717.332031 454.851562 702.296875 440.050781 685.074219 429.019531 C 667.851562 417.917969 648.613281 410.28125 629.003906 404.566406 C 648.613281 410.351562 667.785156 418.085938 684.941406 429.222656 C 702.0625 440.289062 716.996094 455.121094 726.785156 473.082031 C 729.542969 477.421875 731.125 482.300781 733.140625 486.976562 C 734.21875 489.296875 734.757812 491.820312 735.429688 494.273438 L 737.414062 501.675781 L 738.523438 509.242188 C 738.824219 511.765625 739.398438 514.253906 739.363281 516.84375 C 739.429688 521.921875 739.96875 527.035156 739.296875 532.117188 C 737.953125 552.464844 731.730469 572.277344 722.34375 590.339844 C 703.441406 626.535156 672.496094 655.527344 637.277344 675.40625 C 601.925781 695.253906 561.730469 706.386719 521.296875 707.128906 C 501.082031 707.664062 480.664062 706.453125 460.550781 704.03125 C 440.402344 701.609375 420.386719 698.011719 400.777344 693 C 361.554688 682.808594 323.679688 667.570312 289.035156 646.851562 C 254.421875 626.199219 223.074219 600.027344 197.777344 568.914062 C 172.449219 537.902344 153.582031 501.539062 144.632812 462.6875 C 135.449219 423.941406 136.257812 382.871094 146.988281 344.457031 C 157.582031 305.976562 177.699219 270.253906 204.035156 239.914062 C 230.304688 209.539062 262.328125 184.007812 297.644531 164.230469 C 332.929688 144.453125 371.210938 129.71875 410.835938 120.773438 C 450.355469 111.757812 491.460938 107.417969 531.894531 109.570312 C 541.949219 110.445312 551.972656 112.160156 561.425781 115.558594 C 570.878906 118.855469 579.65625 124.167969 586.082031 131.769531 C 592.472656 139.371094 596.273438 149.027344 597.71875 158.984375 C 599.367188 168.972656 598.898438 179.230469 597.886719 189.324219 C 595.632812 209.605469 590.621094 229.519531 585.847656 249.398438 C 581.003906 269.277344 576.191406 289.222656 573.570312 309.574219 C 572.359375 319.734375 571.71875 330.027344 572.558594 340.25 C 572.964844 345.363281 573.835938 350.445312 575.046875 355.421875 C 576.429688 360.367188 578.175781 365.210938 580.53125 369.75 C 585.339844 378.832031 592.4375 386.601562 601.015625 392.21875 C 609.527344 397.9375 619.113281 401.875 628.96875 404.597656 C 619.113281 401.839844 609.558594 397.871094 601.082031 392.121094 C 592.539062 386.46875 585.476562 378.664062 580.734375 369.617188 C 578.378906 365.074219 576.664062 360.230469 575.316406 355.320312 C 574.140625 350.34375 573.300781 345.296875 572.929688 340.21875 C 572.121094 330.027344 572.796875 319.765625 574.039062 309.640625 C 579.386719 269.007812 594.421875 230.425781 599.703125 189.558594 C 600.847656 179.367188 601.421875 168.972656 599.972656 158.679688 C 598.695312 148.421875 594.960938 138.160156 588.300781 129.953125 C 581.609375 121.746094 572.390625 115.929688 562.636719 112.296875 C 552.847656 108.5625 542.554688 106.578125 532.296875 105.5 C 491.058594 102.472656 449.785156 106.039062 409.386719 114.378906 C 368.988281 122.65625 329.734375 136.851562 293.238281 156.359375 C 256.777344 175.835938 223.140625 201.265625 195.425781 232.445312 C 167.808594 263.558594 146.078125 300.558594 134.675781 341.058594 C 123.207031 381.457031 122.164062 424.8125 131.714844 465.75 C 141.300781 506.753906 161.351562 544.832031 187.890625 577.054688 C 214.429688 609.378906 247.394531 635.917969 283.25 656.808594 C 319.207031 677.695312 358.429688 692.292969 398.625 701.949219 C 418.773438 706.65625 439.222656 709.886719 459.742188 711.9375 C 480.292969 713.988281 500.878906 714.796875 521.601562 713.820312 C 563.039062 712.242188 603.875 699.996094 639.464844 679.074219 C 674.949219 658.152344 705.457031 628.015625 724.09375 591.214844 C 733.34375 572.882812 739.398438 552.769531 740.507812 532.214844 C 741.113281 527.105469 740.507812 521.957031 740.375 516.8125 C 740.40625 514.222656 739.800781 511.699219 739.429688 509.175781 L 738.21875 501.574219 L 736.136719 494.171875 C 735.429688 491.71875 734.855469 489.195312 733.746094 486.875 C 731.628906 482.132812 730.011719 477.21875 727.222656 472.882812 Z M 703.742188 465.714844 C 692.542969 450.378906 677.675781 437.964844 661.328125 428.445312 C 644.914062 418.960938 627.1875 412.066406 609.15625 406.382812 C 627.1875 412.132812 644.84375 419.097656 661.191406 428.648438 C 677.472656 438.234375 692.238281 450.648438 703.304688 465.984375 C 714.371094 481.324219 720.664062 499.890625 721.503906 518.660156 C 722.042969 523.335938 721.367188 528.046875 721.234375 532.753906 C 721.234375 535.109375 720.628906 537.394531 720.292969 539.75 L 719.113281 546.714844 C 717.769531 551.222656 716.828125 555.828125 715.214844 560.234375 L 712.691406 566.828125 L 711.410156 570.125 L 709.863281 573.285156 C 701.894531 590.308594 690.488281 605.613281 677.269531 618.898438 C 664.019531 632.183594 648.847656 643.519531 632.566406 652.769531 C 616.253906 661.988281 598.898438 669.351562 580.835938 674.332031 C 562.804688 679.308594 544.238281 682.167969 525.570312 683.078125 L 511.574219 683.414062 L 497.515625 682.976562 C 492.808594 682.910156 488.164062 682.40625 483.457031 682.136719 L 476.425781 681.628906 L 469.429688 680.855469 C 450.792969 678.941406 432.261719 675.710938 414.128906 671.203125 C 395.964844 666.730469 378.105469 661.078125 360.75 654.21875 C 343.390625 647.320312 326.640625 639.046875 310.496094 629.730469 C 278.304688 611.0625 249.074219 587.28125 225.328125 558.890625 C 201.578125 530.601562 183.652344 497.300781 174.871094 461.578125 C 165.855469 425.957031 166.027344 388.082031 175.476562 352.527344 C 184.761719 316.90625 202.957031 283.742188 227.007812 255.519531 C 250.957031 227.164062 280.457031 203.484375 312.917969 184.984375 C 345.34375 166.417969 380.660156 152.726562 417.226562 144.25 C 435.488281 140.011719 454.058594 136.714844 472.792969 134.964844 C 477.46875 134.359375 482.175781 134.226562 486.851562 133.824219 L 493.882812 133.316406 L 500.945312 133.117188 C 510.363281 132.746094 519.75 132.613281 529.066406 133.316406 C 538.382812 134.023438 547.632812 135.539062 556.378906 138.597656 C 560.785156 140.046875 564.890625 142.128906 568.824219 144.484375 C 572.625 147.007812 576.125 150 579.050781 153.535156 C 584.804688 160.664062 587.964844 169.679688 588.875 178.929688 C 589.984375 188.179688 589.140625 197.632812 587.796875 206.949219 C 581.84375 244.21875 567.34375 279.738281 561.191406 317.175781 C 559.710938 326.527344 558.800781 336.011719 559.136719 345.464844 C 559.542969 354.917969 561.292969 364.4375 565.359375 373.011719 C 569.429688 381.589844 575.753906 389.058594 583.523438 394.441406 C 591.261719 399.921875 600.039062 403.757812 609.121094 406.449219 C 600.074219 403.722656 591.296875 399.890625 583.625 394.339844 C 575.890625 388.921875 569.597656 381.457031 565.597656 372.914062 C 561.59375 364.335938 559.878906 354.851562 559.542969 345.429688 C 559.238281 335.980469 560.179688 326.527344 561.695312 317.210938 C 568.050781 279.875 583.15625 244.722656 589.613281 207.183594 C 591.09375 197.800781 592.035156 188.246094 591.125 178.660156 C 590.386719 169.109375 587.324219 159.453125 581.304688 151.683594 C 578.242188 147.847656 574.578125 144.550781 570.574219 141.761719 C 566.4375 139.171875 562.132812 136.851562 557.558594 135.269531 C 548.476562 131.871094 538.921875 130.121094 529.402344 129.179688 C 519.851562 128.238281 510.296875 128.171875 500.8125 128.339844 L 493.679688 128.40625 L 486.550781 128.742188 C 481.808594 129.046875 477.03125 129.078125 472.289062 129.585938 C 453.285156 130.929688 434.414062 133.855469 415.777344 137.757812 C 378.441406 145.59375 342.148438 158.746094 308.476562 177.046875 C 274.875 195.34375 243.761719 218.921875 218.363281 248.054688 C 193.035156 277.082031 173.257812 311.59375 163.132812 349.230469 C 152.972656 386.804688 152.605469 426.96875 161.988281 464.773438 C 171.441406 502.617188 190.546875 537.597656 215.539062 567.097656 C 240.566406 596.664062 271.410156 620.78125 304.84375 639.652344 C 338.3125 658.625 374.773438 671.773438 412.078125 680.082031 C 430.746094 684.289062 449.683594 687.148438 468.722656 688.695312 L 475.855469 689.332031 L 483.019531 689.703125 C 487.792969 689.871094 492.539062 690.308594 497.3125 690.273438 L 511.609375 690.410156 L 525.972656 689.769531 C 545.078125 688.425781 564.050781 685.0625 582.382812 679.578125 C 600.714844 674.097656 618.273438 666.191406 634.6875 656.4375 C 667.347656 636.925781 695.667969 608.875 711.582031 574.128906 L 713.128906 570.898438 L 714.371094 567.535156 L 716.828125 560.839844 C 718.410156 556.367188 719.316406 551.65625 720.628906 547.082031 L 721.703125 540.019531 C 722.007812 537.664062 722.578125 535.34375 722.546875 532.957031 C 722.648438 528.214844 723.253906 523.4375 722.648438 518.695312 C 721.570312 499.65625 714.84375 481.121094 703.742188 465.714844 Z M 678.785156 459.660156 C 666.945312 446.847656 652.515625 436.753906 637.34375 428.378906 L 625.738281 422.390625 L 613.765625 417.246094 C 611.746094 416.40625 609.796875 415.496094 607.742188 414.722656 L 601.589844 412.570312 L 589.277344 408.265625 L 601.554688 412.636719 L 607.675781 414.824219 C 609.695312 415.632812 611.679688 416.539062 613.664062 417.378906 L 625.605469 422.59375 L 637.140625 428.613281 C 652.277344 437.058594 666.609375 447.214844 678.347656 460.03125 C 690.085938 472.746094 698.730469 488.453125 702.160156 505.40625 C 705.828125 522.359375 703.273438 540.121094 697.082031 556.132812 C 690.894531 572.246094 680.835938 586.640625 668.894531 599.019531 C 656.921875 611.398438 642.996094 621.824219 628.027344 630.300781 C 598.023438 647.21875 564.148438 656.707031 529.941406 658.890625 C 495.699219 660.574219 460.988281 657.042969 427.585938 649.339844 C 394.082031 641.804688 361.824219 629.15625 332.023438 612.507812 C 302.222656 595.855469 275.144531 574.328125 253.011719 548.632812 C 230.84375 523 213.925781 492.828125 205.28125 460.234375 C 196.398438 427.773438 196.03125 393.0625 204.167969 360.367188 C 212.140625 327.605469 228.421875 296.960938 250.21875 270.890625 C 271.949219 244.722656 298.789062 222.757812 328.425781 205.535156 C 343.222656 196.890625 358.730469 189.425781 374.707031 183.035156 C 390.71875 176.742188 407.167969 171.628906 423.917969 167.558594 C 440.667969 163.523438 457.691406 160.496094 474.878906 158.847656 C 479.148438 158.277344 483.488281 158.074219 487.796875 157.738281 C 492.101562 157.402344 496.40625 157.097656 500.710938 157.03125 C 509.355469 156.730469 517.96875 156.425781 526.511719 157.097656 C 535.019531 157.738281 543.597656 158.949219 551.570312 161.742188 C 555.574219 163.121094 559.40625 164.902344 562.941406 167.121094 C 566.402344 169.445312 569.566406 172.234375 572.121094 175.53125 C 577.234375 182.160156 579.523438 190.667969 579.925781 199.144531 C 580.398438 207.6875 579.253906 216.300781 577.570312 224.777344 C 570.40625 258.683594 555.941406 290.773438 548.777344 324.878906 C 547.03125 333.390625 545.820312 342.066406 545.71875 350.78125 C 545.71875 359.457031 546.792969 368.269531 550.15625 376.34375 C 553.453125 384.382812 559.003906 391.515625 566 396.695312 C 572.929688 401.976562 580.933594 405.640625 589.210938 408.265625 C 580.933594 405.609375 572.964844 401.875 566.066406 396.59375 C 559.105469 391.414062 553.621094 384.28125 550.359375 376.242188 C 547.0625 368.203125 545.988281 359.425781 546.054688 350.78125 C 546.222656 342.101562 547.464844 333.492188 549.25 324.980469 C 556.582031 290.972656 571.652344 259.253906 579.355469 225.144531 C 581.203125 216.636719 582.449219 207.890625 582.214844 199.042969 C 581.976562 190.265625 579.824219 181.148438 574.441406 173.78125 C 571.753906 170.148438 568.386719 167.023438 564.722656 164.433594 C 560.953125 161.941406 556.917969 159.925781 552.746094 158.410156 C 544.371094 155.25 535.558594 153.835938 526.8125 152.960938 C 518.035156 152.085938 509.253906 152.1875 500.542969 152.289062 C 496.171875 152.253906 491.796875 152.457031 487.425781 152.691406 C 483.050781 152.929688 478.679688 153.027344 474.339844 153.5 C 456.882812 154.777344 439.527344 157.4375 422.40625 161.136719 C 405.285156 164.835938 388.363281 169.679688 371.882812 175.734375 C 355.402344 181.855469 339.355469 189.15625 323.949219 197.664062 C 293.140625 214.683594 264.683594 236.582031 241.507812 263.558594 C 218.398438 290.46875 200.570312 322.492188 191.792969 357.304688 C 182.980469 392.050781 183.179688 429.050781 192.464844 463.730469 C 201.816406 498.410156 219.980469 530.265625 243.355469 557.074219 C 266.769531 583.949219 295.460938 605.78125 326.507812 622.597656 C 342.011719 631.074219 358.261719 638.171875 374.84375 644.125 C 391.425781 650.113281 408.445312 654.824219 425.667969 658.320312 C 460.144531 665.351562 495.328125 668.109375 530.480469 665.585938 C 565.5625 662.492188 600.007812 651.929688 630.179688 633.933594 C 645.214844 624.917969 659.175781 613.953125 671.082031 601.039062 C 682.957031 588.15625 692.710938 573.1875 698.867188 556.769531 C 704.921875 540.421875 707.273438 522.292969 703.304688 505.171875 C 699.640625 487.984375 690.558594 472.410156 678.785156 459.660156 Z M 633.914062 440.21875 C 627.117188 436.148438 620.425781 431.878906 613.261719 428.445312 C 599.234375 421.046875 584.367188 415.464844 569.464844 410.082031 C 584.332031 415.53125 599.167969 421.214844 613.160156 428.683594 C 620.289062 432.113281 626.949219 436.417969 633.710938 440.523438 C 640.167969 445.097656 646.730469 449.570312 652.515625 454.953125 C 664.355469 465.347656 674.480469 477.992188 680.5 492.59375 L 681.675781 495.285156 C 682.011719 496.191406 682.25 497.167969 682.519531 498.109375 L 684.132812 503.761719 C 684.773438 505.609375 684.804688 507.628906 685.175781 509.546875 C 685.410156 511.496094 685.847656 513.414062 685.914062 515.363281 L 685.984375 521.25 C 685.984375 522.226562 686.050781 523.203125 685.984375 524.175781 L 685.644531 527.105469 L 684.941406 532.921875 C 684.535156 534.839844 684 536.722656 683.5625 538.640625 C 682.820312 542.507812 681.171875 546.074219 679.828125 549.742188 C 678.378906 553.375 676.328125 556.738281 674.578125 560.234375 C 672.359375 563.464844 670.410156 566.894531 668.019531 569.957031 L 664.355469 574.53125 L 662.503906 576.820312 L 660.484375 578.9375 C 649.855469 590.441406 637.210938 599.996094 623.621094 607.765625 C 610.03125 615.535156 595.464844 621.554688 580.464844 626.03125 C 565.429688 630.46875 549.957031 633.125 534.382812 634.4375 C 471.953125 638.40625 408.210938 624.75 353.515625 595.152344 C 326.203125 580.316406 301.246094 561.179688 280.695312 538.171875 C 260.109375 515.230469 244.199219 488.085938 235.789062 458.652344 C 227.144531 429.320312 226.203125 397.804688 233.0625 367.96875 C 239.824219 338.097656 254.1875 310.011719 273.695312 286.0625 C 293.171875 262.046875 317.390625 241.796875 344.234375 225.886719 C 371.042969 209.875 400.507812 198.304688 430.984375 190.769531 C 446.21875 186.96875 461.726562 184.246094 477.367188 182.628906 C 481.269531 182.125 485.203125 181.824219 489.105469 181.554688 C 493.042969 181.285156 496.945312 180.914062 500.878906 180.847656 C 508.75 180.578125 516.621094 180.207031 524.390625 180.8125 C 532.160156 181.351562 539.933594 182.394531 547.230469 184.917969 C 550.863281 186.160156 554.328125 187.808594 557.492188 189.894531 C 560.585938 192.046875 563.34375 194.671875 565.460938 197.800781 C 569.835938 204.023438 571.078125 211.960938 570.980469 219.699219 C 570.777344 227.5 569.261719 235.269531 567.210938 242.875 C 558.835938 273.3125 544.472656 301.972656 536.398438 332.71875 C 534.382812 340.386719 532.902344 348.222656 532.328125 356.128906 C 531.859375 364.03125 532.328125 372.140625 534.988281 379.640625 C 536.265625 383.375 538.046875 387.007812 540.371094 390.203125 C 541.445312 391.882812 542.824219 393.296875 544.101562 394.84375 C 545.550781 396.1875 546.859375 397.703125 548.476562 398.878906 C 554.632812 403.890625 561.863281 407.457031 569.363281 409.980469 C 561.898438 407.390625 554.699219 403.824219 548.578125 398.78125 C 546.996094 397.601562 545.683594 396.089844 544.238281 394.742188 C 542.992188 393.195312 541.613281 391.78125 540.539062 390.101562 C 538.214844 386.90625 536.5 383.304688 535.222656 379.574219 C 532.632812 372.070312 532.195312 364.03125 532.699219 356.160156 C 533.304688 348.289062 534.820312 340.488281 536.871094 332.851562 C 545.144531 302.207031 560.113281 273.988281 568.992188 243.378906 C 571.179688 235.707031 572.828125 227.871094 573.265625 219.796875 C 573.570312 211.828125 572.527344 203.25 567.882812 196.21875 C 565.628906 192.71875 562.636719 189.726562 559.308594 187.273438 C 555.910156 184.917969 552.210938 183.066406 548.375 181.621094 C 540.707031 178.761719 532.667969 177.484375 524.660156 176.710938 C 516.621094 175.902344 508.648438 176.070312 500.679688 176.136719 C 496.675781 176.105469 492.707031 176.375 488.738281 176.542969 C 484.734375 176.710938 480.765625 176.910156 476.796875 177.316406 C 460.886719 178.527344 445.042969 180.914062 429.402344 184.378906 C 398.1875 191.242188 367.679688 202.273438 339.625 218.050781 C 311.605469 233.757812 285.738281 253.941406 264.816406 278.832031 C 243.960938 303.65625 228.050781 333.152344 220.515625 365.109375 C 212.984375 396.996094 213.824219 430.867188 222.9375 462.386719 C 232.089844 493.9375 249.277344 522.699219 271.105469 546.78125 C 292.972656 570.898438 319.511719 590.308594 348.066406 605.308594 C 376.691406 620.277344 407.671875 630.269531 439.15625 636.390625 C 454.933594 639.382812 470.910156 641.164062 486.886719 642.074219 C 494.890625 642.578125 502.898438 642.613281 510.902344 642.644531 C 518.941406 642.34375 526.980469 642.175781 534.953125 641.132812 C 550.898438 639.382812 566.742188 636.222656 582.011719 631.277344 C 597.25 626.296875 611.980469 619.738281 625.707031 611.429688 C 639.394531 603.121094 652.078125 593.03125 662.640625 580.957031 L 664.65625 578.734375 L 666.472656 576.347656 L 670.105469 571.570312 C 672.496094 568.34375 674.410156 564.808594 676.5625 561.445312 C 680.195312 554.316406 683.5625 546.984375 685.308594 539.113281 C 685.746094 537.160156 686.25 535.210938 686.621094 533.257812 L 687.226562 527.273438 L 687.53125 524.277344 C 687.5625 523.269531 687.496094 522.261719 687.496094 521.285156 L 687.328125 515.296875 C 687.226562 513.3125 686.757812 511.328125 686.488281 509.378906 C 686.082031 507.425781 686.015625 505.375 685.34375 503.492188 L 683.59375 497.773438 C 683.292969 496.832031 683.054688 495.855469 682.6875 494.914062 L 681.441406 492.1875 C 675.152344 477.457031 664.625 465.042969 652.75 454.617188 C 646.996094 449.199219 640.40625 444.761719 633.914062 440.21875 Z M 656.820312 480.484375 C 648.511719 468.675781 637.613281 459.054688 626.144531 450.480469 C 602.730469 433.863281 576.460938 421.71875 549.621094 411.898438 C 576.429688 421.886719 602.597656 434.199219 625.839844 450.882812 C 637.277344 459.460938 647.839844 469.347656 655.878906 481.121094 L 658.871094 485.5625 L 661.292969 490.304688 C 663.109375 493.398438 664.1875 496.761719 665.363281 500.09375 C 665.632812 500.933594 666.003906 501.742188 666.203125 502.617188 L 667.820312 510.386719 C 667.988281 512.136719 668.054688 513.917969 668.15625 515.667969 C 668.289062 517.417969 668.425781 519.199219 668.15625 520.949219 L 667.71875 526.195312 C 667.484375 527.945312 666.976562 529.625 666.609375 531.34375 C 666.035156 534.839844 664.457031 538.035156 663.277344 541.332031 C 662.671875 542.980469 661.664062 544.460938 660.890625 546.042969 C 660.015625 547.554688 659.34375 549.203125 658.300781 550.617188 C 656.214844 553.476562 654.464844 556.535156 652.042969 559.125 C 642.996094 569.957031 631.625 578.667969 619.382812 585.699219 C 594.761719 599.65625 566.875 607.292969 538.820312 610.1875 C 510.734375 612.742188 482.144531 610.757812 454.460938 605.34375 C 426.746094 600.027344 399.902344 590.609375 374.976562 577.726562 C 350.050781 564.878906 327.214844 548.058594 308.207031 527.742188 C 289.203125 507.460938 274.335938 483.308594 266.128906 457.003906 C 257.753906 430.769531 256.273438 402.414062 261.925781 375.433594 C 267.472656 348.425781 279.988281 322.929688 297.308594 301.132812 C 314.566406 279.269531 336.226562 260.769531 360.34375 246.203125 C 384.429688 231.539062 411.003906 221.007812 438.449219 214.046875 C 452.171875 210.546875 466.199219 208.058594 480.328125 206.546875 C 483.859375 206.074219 487.390625 205.773438 490.921875 205.535156 C 494.453125 205.300781 498.019531 204.929688 501.550781 204.863281 C 508.648438 204.59375 515.78125 204.257812 522.777344 204.761719 C 529.773438 205.234375 536.835938 206.140625 543.328125 208.496094 C 549.753906 210.785156 555.808594 214.683594 558.9375 220.738281 C 562.132812 226.695312 562.570312 233.960938 561.695312 240.886719 C 560.886719 247.886719 558.871094 254.746094 556.582031 261.472656 C 547.0625 288.382812 532.867188 313.609375 523.953125 340.890625 C 521.734375 347.71875 519.953125 354.679688 518.976562 361.8125 C 518.066406 368.910156 517.96875 376.242188 519.882812 383.207031 C 521.632812 390.167969 525.636719 396.527344 530.984375 401.269531 C 536.367188 406.042969 542.824219 409.441406 549.519531 411.898438 C 542.824219 409.410156 536.398438 405.976562 531.050781 401.203125 C 525.738281 396.457031 521.800781 390.101562 520.085938 383.171875 C 518.234375 376.242188 518.371094 368.945312 519.3125 361.914062 C 520.320312 354.851562 522.136719 347.886719 524.390625 341.125 C 533.539062 313.949219 548.273438 289.15625 558.296875 262.179688 C 560.71875 255.417969 562.90625 248.492188 563.980469 241.257812 C 565.09375 234.128906 564.957031 226.324219 561.527344 219.460938 C 558.164062 212.5 551.402344 207.925781 544.574219 205.265625 C 537.644531 202.542969 530.34375 201.398438 523.113281 200.691406 C 515.847656 199.953125 508.617188 200.121094 501.417969 200.15625 C 497.820312 200.121094 494.21875 200.390625 490.585938 200.523438 C 486.988281 200.660156 483.386719 200.859375 479.789062 201.230469 C 465.394531 202.375 451.0625 204.460938 436.9375 207.65625 C 408.714844 213.980469 381.097656 223.96875 355.769531 238.398438 C 330.476562 252.761719 307.164062 271.230469 288.429688 294 C 269.796875 316.707031 255.699219 343.683594 249.410156 372.8125 C 243.121094 401.875 244.535156 432.585938 253.449219 461.007812 C 262.394531 489.429688 278.609375 515.164062 298.855469 536.523438 C 319.171875 557.949219 343.628906 574.96875 369.761719 587.953125 C 395.964844 600.9375 424.121094 609.613281 452.777344 614.355469 C 481.4375 619.101562 510.632812 620.277344 539.527344 616.8125 C 568.253906 613.011719 596.609375 604.402344 621.46875 589.332031 C 633.8125 581.761719 645.28125 572.445312 654.296875 561.007812 C 656.71875 558.285156 658.46875 555.054688 660.519531 552.027344 C 661.5625 550.546875 662.203125 548.800781 663.074219 547.21875 C 663.851562 545.570312 664.824219 544.023438 665.398438 542.273438 C 666.539062 538.808594 668.019531 535.445312 668.558594 531.847656 C 668.894531 530.0625 669.398438 528.316406 669.601562 526.5 L 669.972656 521.050781 C 670.207031 519.234375 670.039062 517.417969 669.871094 515.601562 C 669.703125 513.785156 669.636719 511.96875 669.398438 510.183594 L 668.1875 504.871094 L 667.582031 502.210938 C 667.347656 501.339844 666.976562 500.496094 666.675781 499.65625 C 665.398438 496.257812 664.21875 492.828125 662.335938 489.734375 L 659.78125 484.957031 Z M 652.347656 522.328125 L 651.472656 527.203125 C 651.136719 528.820312 650.460938 530.332031 649.957031 531.914062 C 649.082031 535.144531 647.199219 537.867188 645.785156 540.859375 C 638.824219 552.0625 628.597656 560.773438 617.597656 567.667969 C 595.332031 581.359375 569.835938 588.589844 544.203125 592.425781 C 492.773438 599.390625 439.191406 592.359375 391.425781 570.496094 C 367.710938 559.394531 345.410156 544.660156 326.707031 525.925781 C 308.039062 507.222656 292.871094 484.554688 284.089844 459.257812 C 275.378906 433.964844 273.394531 406.347656 278.472656 380.109375 C 283.550781 353.808594 295.898438 329.320312 312.414062 308.734375 C 328.996094 288.113281 349.816406 271.363281 372.453125 258.378906 C 395.160156 245.429688 419.847656 236.3125 445.144531 230.695312 C 457.789062 227.835938 470.640625 225.988281 483.558594 224.976562 C 486.785156 224.640625 490.015625 224.472656 493.242188 224.371094 C 496.472656 224.238281 499.703125 224.035156 502.929688 224.070312 C 509.390625 224.035156 515.847656 223.902344 522.375 224.609375 C 528.867188 225.246094 535.425781 226.390625 541.613281 229.117188 C 547.769531 231.570312 553.519531 236.785156 555.335938 243.511719 C 557.253906 250.171875 556.078125 256.96875 554.363281 263.191406 C 552.546875 269.445312 550.089844 275.433594 547.332031 281.253906 C 543.128906 290.167969 538.382812 298.8125 533.609375 307.386719 C 533.507812 308.667969 533.203125 309.910156 532.800781 310.988281 C 531.152344 315.359375 528.496094 318.792969 525.804688 322.121094 C 525.5 322.492188 525.199219 322.828125 524.894531 323.164062 C 520.253906 331.773438 515.8125 340.488281 512.046875 349.535156 C 509.589844 355.457031 507.539062 361.511719 506.128906 367.765625 C 504.714844 373.988281 504.140625 380.480469 505.152344 386.769531 C 506.128906 393.09375 509.15625 399.046875 513.660156 403.589844 C 518.203125 408.128906 523.855469 411.394531 529.808594 413.746094 C 523.855469 411.394531 518.167969 408.164062 513.59375 403.65625 C 509.019531 399.148438 505.957031 393.160156 504.917969 386.804688 C 503.839844 380.449219 504.410156 373.921875 505.757812 367.664062 C 507.136719 361.375 509.15625 355.285156 511.578125 349.332031 C 514.804688 341.363281 518.539062 333.660156 522.40625 326.023438 C 519.042969 329.789062 515.511719 333.355469 511.945312 336.886719 C 507.472656 343.851562 503.199219 350.914062 499.367188 358.28125 C 496.808594 363.328125 494.488281 368.507812 492.773438 373.886719 C 491.023438 379.238281 489.914062 384.855469 490.148438 390.503906 C 490.316406 393.332031 490.855469 396.121094 491.832031 398.746094 C 492.839844 401.371094 494.355469 403.792969 496.136719 405.976562 C 499.871094 410.25 504.78125 413.34375 509.960938 415.597656 C 504.78125 413.378906 499.835938 410.316406 496.070312 406.078125 C 494.253906 403.890625 492.707031 401.46875 491.664062 398.8125 C 490.652344 396.15625 490.117188 393.332031 489.914062 390.503906 C 489.644531 384.820312 490.722656 379.136719 492.4375 373.753906 C 494.152344 368.339844 496.40625 363.125 498.960938 358.046875 C 502.15625 351.6875 505.691406 345.566406 509.355469 339.476562 C 509.019531 339.8125 508.648438 340.183594 508.3125 340.519531 C 505.621094 343.179688 502.929688 345.800781 500.207031 348.425781 C 495.398438 354.546875 490.722656 360.769531 486.515625 367.328125 C 483.894531 371.464844 481.4375 375.773438 479.417969 380.246094 C 477.402344 384.71875 475.785156 389.429688 475.347656 394.339844 C 474.84375 399.214844 475.886719 404.296875 478.746094 408.332031 C 481.605469 412.367188 485.777344 415.261719 490.183594 417.414062 C 485.742188 415.328125 481.539062 412.4375 478.644531 408.433594 C 475.753906 404.398438 474.644531 399.25 475.113281 394.339844 C 475.519531 389.394531 477.097656 384.617188 479.082031 380.109375 C 481.066406 375.605469 483.488281 371.265625 486.113281 367.09375 C 489.242188 362.117188 492.605469 357.304688 496.035156 352.5625 C 488.0625 360.332031 480.191406 368.203125 473.164062 376.816406 C 467.984375 383.375 462.871094 390.335938 460.582031 398.476562 C 459.472656 402.480469 459.371094 406.988281 461.324219 410.753906 C 463.171875 414.554688 466.703125 417.28125 470.335938 419.296875 C 466.671875 417.3125 463.105469 414.65625 461.1875 410.820312 C 459.171875 407.054688 459.238281 402.480469 460.3125 398.441406 C 462.566406 390.234375 467.613281 383.171875 472.757812 376.546875 C 481.875 365.042969 492.167969 354.582031 502.394531 344.085938 C 508.648438 335.878906 515.109375 327.804688 521.261719 319.53125 C 523.214844 316.875 525.199219 314.148438 527.050781 311.390625 C 528.023438 309.808594 529.035156 308.230469 530.007812 306.613281 C 529.976562 306.042969 529.875 305.503906 529.671875 305.035156 C 529.035156 303.753906 527.6875 302.8125 525.972656 302.140625 C 518.839844 299.617188 510.0625 300.726562 501.890625 301.199219 C 497.71875 301.300781 493.648438 302.105469 489.542969 302.679688 C 487.492188 303.015625 485.441406 303.21875 483.421875 303.65625 L 477.367188 305.035156 C 461.289062 308.765625 445.78125 314.957031 431.890625 323.535156 C 418 332.078125 405.789062 343.179688 396.503906 356.195312 C 387.1875 369.144531 380.929688 384.214844 379.621094 399.855469 C 378.070312 415.464844 381.066406 431.339844 387.960938 445.433594 C 394.6875 459.628906 405.117188 472.175781 417.664062 482.164062 C 430.210938 492.15625 444.605469 500.027344 459.945312 505.40625 C 475.28125 510.824219 491.527344 513.953125 507.945312 514.65625 C 524.660156 515.332031 541.679688 516.003906 558.363281 516.136719 C 566.707031 516.136719 575.082031 516.003906 583.121094 514.757812 C 587.058594 514.121094 591.160156 513.179688 593.917969 511.226562 C 595.230469 510.21875 596.105469 509.140625 596.171875 507.730469 C 596.308594 506.316406 595.734375 504.566406 594.828125 502.886719 C 593.042969 499.523438 590.183594 496.425781 587.292969 493.5 C 584.367188 490.609375 581.203125 487.847656 577.976562 485.191406 C 571.449219 479.945312 564.6875 474.933594 557.660156 470.292969 C 529.671875 451.523438 500.074219 435.207031 470.371094 419.265625 C 485.304688 427.101562 500.171875 435.039062 514.90625 443.28125 C 529.640625 451.488281 544.371094 459.730469 558.667969 468.742188 C 565.796875 473.285156 572.929688 477.859375 579.757812 482.871094 C 583.1875 485.394531 586.519531 488.050781 589.714844 490.910156 C 592.875 493.835938 596.039062 496.832031 598.425781 500.800781 C 599.605469 502.785156 600.644531 505.105469 600.613281 507.929688 C 600.679688 510.824219 598.761719 513.515625 596.8125 515.027344 C 592.742188 518.089844 588.335938 519.097656 584.0625 520.105469 C 575.484375 521.855469 566.941406 522.394531 558.433594 522.832031 C 541.378906 523.503906 524.660156 523.640625 507.675781 523.808594 C 490.386719 523.808594 472.925781 521.621094 456.277344 516.273438 C 439.660156 510.925781 423.648438 503.085938 409.65625 492.1875 C 395.730469 481.324219 383.789062 467.433594 375.953125 451.183594 C 368.183594 434.9375 364.851562 416.4375 366.871094 398.476562 C 368.722656 380.414062 376.558594 363.460938 387.253906 349.402344 C 398.085938 335.308594 412.078125 324.105469 427.25 315.695312 C 442.488281 307.289062 459.035156 301.636719 475.953125 298.542969 L 482.3125 297.398438 C 484.429688 297.027344 486.585938 296.925781 488.703125 296.691406 C 492.976562 296.320312 497.214844 295.714844 501.519531 295.785156 C 510.027344 295.785156 518.671875 294.773438 527.519531 298.273438 C 529.335938 299.078125 531.21875 300.390625 532.464844 302.34375 C 532.667969 302.007812 532.867188 301.636719 533.070312 301.300781 C 534.214844 299.078125 535.257812 296.828125 536.132812 294.503906 C 537.710938 290.132812 538.285156 285.121094 535.527344 282.027344 C 532.835938 278.898438 528.023438 277.652344 523.417969 276.980469 C 514.03125 275.667969 504.109375 277.082031 494.457031 277.519531 L 480.023438 279.570312 C 475.214844 280.34375 470.539062 281.621094 465.796875 282.632812 C 446.992188 287.375 428.929688 294.839844 412.652344 305.035156 C 396.371094 315.191406 381.972656 328.210938 370.90625 343.480469 C 359.773438 358.683594 352.304688 376.410156 349.882812 394.808594 C 347.261719 413.242188 350.253906 432.214844 357.621094 449.199219 C 364.886719 466.320312 376.492188 481.59375 390.617188 494.105469 C 404.746094 506.617188 421.195312 516.710938 438.886719 523.90625 C 456.582031 531.140625 475.347656 535.984375 494.554688 538 C 513.695312 539.648438 533.507812 539.515625 552.914062 537.96875 C 562.636719 537.160156 572.324219 535.917969 581.742188 533.761719 C 591.058594 531.578125 600.578125 528.683594 607.84375 522.933594 C 611.375 520.074219 614.101562 516.273438 614.539062 511.867188 C 614.976562 507.460938 613.460938 502.886719 611.140625 498.746094 C 606.332031 490.472656 599.199219 483.476562 591.734375 477.21875 C 576.597656 464.742188 559.84375 454.179688 542.722656 444.457031 C 525.535156 434.804688 507.945312 425.925781 490.148438 417.378906 C 508.011719 425.757812 525.703125 434.5 542.960938 443.988281 C 560.214844 453.507812 577.335938 463.460938 592.910156 475.742188 C 600.578125 481.996094 608.179688 488.589844 613.699219 497.234375 C 616.355469 501.539062 618.441406 506.617188 618.136719 512.167969 C 617.835938 517.753906 614.503906 522.695312 610.601562 526.128906 C 602.53125 533.023438 592.675781 536.320312 583.089844 539.042969 C 573.402344 541.667969 563.511719 543.351562 553.621094 544.628906 C 533.777344 547.015625 514.066406 548.027344 493.851562 547.117188 C 473.769531 545.773438 453.722656 541.769531 434.714844 534.570312 C 415.777344 527.339844 397.714844 517.214844 382.210938 503.726562 C 366.738281 490.269531 353.683594 473.585938 345.445312 454.414062 C 337.304688 435.273438 334.140625 413.746094 337.269531 393.09375 C 340.296875 372.375 349.3125 352.933594 361.824219 336.6875 C 374.40625 320.371094 390.519531 307.289062 408.042969 297.261719 C 425.632812 287.238281 444.773438 280.3125 464.351562 276.207031 C 484.027344 272.171875 503.941406 270.523438 524.121094 272.878906 C 529.035156 273.851562 534.582031 275.199219 538.351562 279.804688 C 539.933594 281.789062 540.636719 284.3125 540.738281 286.734375 C 541.042969 286.0625 541.378906 285.457031 541.648438 284.785156 C 543.765625 279.636719 545.480469 274.222656 545.480469 268.90625 C 545.414062 266.285156 544.808594 263.726562 543.496094 261.609375 C 542.1875 259.488281 540.167969 257.839844 537.878906 256.628906 C 533.238281 254.175781 527.722656 253.265625 522.238281 252.796875 C 516.722656 252.324219 511.171875 252.492188 505.554688 252.726562 C 502.761719 252.796875 499.9375 252.996094 497.144531 253.234375 C 494.355469 253.46875 491.5625 253.636719 488.769531 254.007812 C 477.636719 255.21875 466.605469 257.203125 455.773438 259.992188 C 434.144531 265.542969 413.324219 274.121094 394.519531 285.828125 C 375.71875 297.5 359 312.433594 345.914062 329.925781 C 332.796875 347.382812 323.816406 367.734375 320.519531 389.023438 C 317.089844 410.28125 319.441406 432.347656 327.214844 452.429688 C 334.78125 472.613281 347.5625 490.777344 363.339844 505.84375 C 379.113281 520.914062 397.648438 533.292969 417.761719 542.308594 C 437.878906 551.390625 459.339844 557.679688 481.335938 560.839844 C 503.335938 563.902344 525.871094 564.105469 548.105469 561.648438 C 559.207031 560.402344 570.273438 558.488281 581.035156 555.59375 C 591.765625 552.667969 602.328125 548.800781 611.78125 543.113281 C 621.132812 537.566406 629.742188 529.457031 632.128906 518.863281 C 633.542969 513.613281 632.566406 508.066406 631.019531 502.851562 C 630.011719 500.296875 629.136719 497.636719 627.625 495.316406 L 625.539062 491.683594 L 623.046875 488.320312 C 616.289062 479.371094 607.878906 471.703125 599 464.808594 C 589.984375 458.011719 580.632812 451.621094 570.8125 446.003906 C 551.269531 434.601562 530.816406 424.78125 510.0625 415.664062 C 530.851562 424.613281 551.402344 434.265625 571.046875 445.566406 C 590.554688 456.902344 610.097656 469.316406 624.527344 487.210938 L 627.152344 490.609375 L 629.371094 494.308594 C 631.019531 496.695312 632.0625 499.421875 633.207031 502.078125 C 635.058594 507.527344 636.335938 513.546875 634.988281 519.433594 C 633.8125 525.253906 631.121094 530.804688 627.21875 535.242188 C 623.386719 539.683594 618.878906 543.550781 614 546.648438 C 604.246094 553.003906 593.480469 557.375 582.515625 560.808594 C 571.515625 564.203125 560.28125 566.558594 548.914062 568.242188 C 526.242188 571.605469 503.132812 572.210938 480.160156 569.890625 C 457.253906 567.398438 434.515625 561.882812 413.089844 552.769531 C 391.730469 543.652344 371.582031 531.171875 354.460938 515.09375 C 337.40625 499.015625 323.210938 479.40625 314.734375 457.140625 C 306.324219 434.90625 303.835938 410.382812 307.839844 386.9375 C 311.808594 363.460938 322.335938 341.429688 336.800781 322.996094 C 351.332031 304.527344 369.765625 289.5625 389.8125 278.058594 C 409.925781 266.554688 431.789062 258.480469 454.226562 253.601562 C 465.425781 251.113281 476.828125 249.5 488.234375 248.691406 C 491.089844 248.421875 493.949219 248.320312 496.808594 248.222656 C 499.667969 248.085938 502.527344 247.984375 505.386719 248.019531 C 511.070312 247.953125 516.855469 248.019531 522.609375 248.726562 C 528.328125 249.464844 534.246094 250.574219 539.5625 253.636719 C 542.1875 255.148438 544.675781 257.269531 546.222656 260.0625 C 547.804688 262.820312 548.410156 266.015625 548.375 269.007812 C 548.242188 272.539062 547.464844 275.902344 546.390625 279.101562 C 548.746094 273.75 550.832031 268.300781 552.242188 262.683594 C 553.722656 256.628906 554.53125 250.171875 552.648438 244.453125 C 550.863281 238.734375 546.019531 234.566406 540.335938 232.445312 C 534.683594 230.160156 528.394531 229.25 522.171875 228.847656 C 515.914062 228.375 509.558594 228.710938 503.199219 228.914062 C 500.039062 228.980469 496.84375 229.285156 493.679688 229.519531 C 490.519531 229.722656 487.359375 230.023438 484.195312 230.425781 C 471.582031 231.839844 459.070312 234.027344 446.792969 237.222656 C 422.269531 243.511719 398.625 253.132812 377.199219 266.285156 C 355.804688 279.4375 336.632812 296.152344 321.527344 315.863281 C 306.359375 335.507812 295.5625 358.414062 291.1875 382.566406 C 286.679688 406.683594 288.664062 431.910156 296.804688 455.019531 C 304.742188 478.230469 318.570312 499.386719 335.957031 517.011719 C 353.347656 534.707031 374.035156 549.238281 396.503906 560.234375 C 441.476562 582.269531 493.246094 591.113281 543.496094 585.867188 C 568.523438 582.941406 593.617188 576.683594 615.546875 564.136719 C 626.378906 557.8125 636.4375 549.773438 643.398438 539.347656 C 644.8125 536.589844 646.695312 534.03125 647.601562 531.039062 C 648.109375 529.558594 648.8125 528.144531 649.183594 526.632812 L 650.160156 522.058594 C 651 515.9375 650.832031 509.511719 648.847656 503.523438 C 645.351562 491.382812 637.546875 480.820312 628.566406 471.804688 C 626.445312 469.417969 623.921875 467.433594 621.570312 465.277344 C 619.214844 463.125 616.792969 461.039062 614.203125 459.15625 C 611.644531 457.238281 609.15625 455.222656 606.566406 453.371094 L 598.5625 448.089844 C 577.035156 434.164062 553.621094 423.46875 529.875 413.847656 C 553.65625 423.335938 577.167969 433.894531 598.828125 447.6875 C 609.726562 454.449219 620.054688 462.183594 629.371094 471.066406 C 638.554688 479.945312 646.761719 490.507812 650.628906 503.054688 C 652.648438 509.074219 653.019531 515.800781 652.347656 522.328125 Z M 511.273438 334.601562 C 512.28125 333.492188 513.292969 332.378906 514.300781 331.269531 C 514.636719 330.730469 515.007812 330.160156 515.34375 329.589844 C 513.996094 331.304688 512.652344 332.953125 511.273438 334.601562 Z M 523.214844 319.765625 C 521.96875 321.617188 520.726562 323.464844 519.515625 325.351562 C 520.894531 323.703125 522.207031 322.019531 523.515625 320.304688 C 524.996094 318.285156 526.410156 316.167969 527.585938 314.046875 C 526.105469 315.933594 524.660156 317.847656 523.214844 319.765625 Z M 523.214844 319.765625 " fill-opacity="1" fill-rule="nonzero"/></g></svg>